P2
# map.pgm header
13 6 #  W x H image
255 # white: 255, gray: 127, black: 0

# map.pgm data
255 255 0   255 255 0   255 255 0   255 255 0   255
255 255 0   255 255 0   255 255 0   255 255 0   255
255 255 0   255 255 255 255 255 0   255 255 255  255
255 255 0   255 255 0   255 255 255 255 255 0   255
255 255 255 255 255 0   255 255 0   255 255 0   255
255 255 0   255 255 0   255 255 0   255 255 0   127
