P2
# map1.pgm header
10 10 # 10 x 10 image
2 # white: 2, gray: 1, black: 0

# map1.pgm data
1 2 2 2 2 2 2 2 2 2
2 2 2 2 2 2 2 2 2 2
2 2 0 0 2 2 2 2 2 2
2 2 2 2 2 2 2 2 2 2
2 2 2 2 2 2 2 2 2 2
2 2 2 2 0 0 2 2 2 2
2 2 2 2 2 2 2 2 2 2
2 2 2 2 2 2 2 2 2 2
2 2 2 2 2 2 0 0 2 2
2 2 2 2 2 2 0 0 2 2 