P2
# map1.pgm header
10 12 # 10 x 10 image
255 # white: 2, gray: 1, black: 0

# map1.pgm data
127 255 255 255 255 255 255 255 255 255 
255 255 255 255 255 255 255 255 255 255 
255 255 0   0   255 255 255 255 255 255 
255 255 255 255 255 255 255 255 255 255 
255 255 255 255 255 255 255 255 255 255 
255 255 255 255 0   0   255 255 255 255 
255 255 255 255 255 255 255 255 255 255 
255 255 255 255 255 255 255 255 255 255 
255 255 255 255 255 255 0   0   255 255 
255 255 255 255 255 255 0   0   255 255

255 255 255 255 255 255 0   0   255 255
255 255 255 255 255 255 0   0   255 255
